<svg xmlns="http://www.w3.org/2000/svg" width="62" height="62" viewBox="0 0 62 62">
    <g fill="none" fill-rule="evenodd">
        <g fill-rule="nonzero">
            <g>
                <g>
                    <path fill="#EDEFF1" d="M48.921 2.988H51.909V19.916999999999998H48.921z" transform="translate(1 5) translate(0 33.863)"/>
                    <path fill="#80D6FB" d="M51.909 1.992H59.876V20.913H51.909z" transform="translate(1 5) translate(0 33.863)"/>
                    <path fill="#FFD3B3" d="M46.93 3.983C45.496 1.174 41.503 0 38.962 0c-2.542 0-6.006 1.09-7.967 3.983h-8.963c-1.65 0-2.987 1.338-2.987 2.988s1.337 2.988 2.987 2.988h-2.987l-12.451-7.4C4.77 1.465 2.41 1.997 1.23 3.765L.459 4.922c-.61.916-.362 2.153.553 2.763l16.035 10.567c.653.436 1.417.67 2.204.67h29.67V3.982H46.93z" transform="translate(1 5) translate(0 33.863)"/>
                    <path fill="#FCB98B" d="M19.821 8.963c.547.607 1.33.996 2.212.996h9.959v-.996h-12.17z" transform="translate(1 5) translate(0 33.863)"/>
                    <path fill="#D3D3D3" d="M50.913 2.988H51.913V19.916999999999998H50.913z" transform="translate(1 5) translate(0 33.863)"/>
                </g>
                <g transform="translate(1 5) translate(4)">
                    <circle cx="15.535" cy="15.535" r="15.535" fill="#FFE352"/>
                    <path fill="#4060E3" d="M17.328 14.34h-3.585c-1.647 0-2.988-1.34-2.988-2.987s1.341-2.988 2.988-2.988h2.987c1.977 0 3.585 1.609 3.585 3.585h2.39c0-3.294-2.68-5.975-5.975-5.975v-2.39h-2.39v2.39h-.597c-2.965 0-5.378 2.413-5.378 5.378 0 2.965 2.413 5.377 5.378 5.377h3.585c1.647 0 2.987 1.341 2.987 2.988s-1.34 2.987-2.987 2.987H14.34c-1.976 0-3.585-1.608-3.585-3.585h-2.39c0 3.295 2.68 5.975 5.975 5.975v2.39h2.39v-2.39h.598c2.965 0 5.377-2.412 5.377-5.377s-2.412-5.378-5.377-5.378z"/>
                </g>
                <g transform="translate(1 5) translate(29 13)">
                    <circle cx="9.56" cy="9.56" r="9.56" fill="#4060E3"/>
                    <circle cx="12.548" cy="13.743" r="1.793" fill="#EDEFF1"/>
                    <circle cx="6.573" cy="5.378" r="1.793" fill="#EDEFF1"/>
                    <path fill="#EDEFF1" d="M8.365 2.8L10.755 2.8 10.755 16.32 8.365 16.32z" transform="rotate(45 9.56 9.56)"/>
                </g>
            </g>
        </g>
    </g>
</svg>
