<svg xmlns="http://www.w3.org/2000/svg" width="62" height="62" viewBox="0 0 62 62">
    <g fill="none" fill-rule="evenodd">
        <g fill-rule="nonzero">
            <g>
                <path fill="#CCF2FE" d="M22.495 0C10.112 0 .04 8.954.04 19.961c.024 4.823 1.926 9.447 5.302 12.891-1.242 2.486-2.61 4.18-3.923 4.838-1.036.518-1.58 1.68-1.313 2.806.266 1.126 1.272 1.922 2.43 1.921 4.704.092 9.35-1.06 13.465-3.342 2.118.565 4.302.85 6.495.847 12.383 0 22.456-8.954 22.456-19.961C44.951 8.954 34.878 0 22.495 0z" transform="translate(1 5)"/>
                <path fill="#80D6FB" d="M27.485 37.427c-12.402 0-22.456-8.937-22.456-19.961 0-6.546 3.545-12.355 9.02-15.996C5.84 4.443.04 11.61.04 19.961c.024 4.823 1.926 9.447 5.302 12.891-1.242 2.486-2.61 4.18-3.923 4.838-1.036.518-1.58 1.68-1.313 2.806.266 1.126 1.272 1.922 2.43 1.921 4.704.092 9.35-1.06 13.465-3.342 2.118.565 4.302.85 6.495.847 4.75.026 9.402-1.344 13.38-3.94-2.693.96-5.53 1.45-8.39 1.445z" transform="translate(1 5)"/>
                <path fill="#4060E3" d="M58.543 47.67c-1.314-.656-2.682-2.351-3.924-4.837 3.377-3.445 5.279-8.068 5.303-12.891 0-11.007-10.073-19.961-22.456-19.961S15.01 18.935 15.01 29.94c0 11.007 10.073 19.962 22.456 19.962 2.193.003 4.377-.282 6.495-.848 4.116 2.282 8.761 3.435 13.466 3.343 1.157 0 2.163-.796 2.429-1.922.266-1.127-.278-2.288-1.313-2.805z" transform="translate(1 5)"/>
                <g fill="#FFF" transform="translate(1 5) translate(34.97 22.456)">
                    <path d="M0 7.485L4.99 7.485 4.99 17.466 0 17.466z"/>
                    <circle cx="2.495" cy="2.495" r="2.495"/>
                </g>
            </g>
        </g>
    </g>
</svg>
