<svg xmlns="http://www.w3.org/2000/svg" width="80" height="80" viewBox="0 0 80 80">
  <g id="qr-code_" data-name="qr-code " transform="translate(-33.925 -151.625)">
    <path id="路径_53" data-name="路径 53" d="M160.162,239.207h26.707a8.649,8.649,0,0,1,.909.016,1.545,1.545,0,0,1,.159,3.063,5.135,5.135,0,0,1-.989.048H160.162v26.526a5.713,5.713,0,0,1-.032.909,1.513,1.513,0,0,1-1.4,1.308,1.443,1.443,0,0,1-1.594-1.053,3.962,3.962,0,0,1-.112-1.148V242.333h-20.09a5.067,5.067,0,0,1-.989-.064,1.536,1.536,0,0,1,.207-3.047c.271-.016.558-.016.829-.016h20.058V212.3a3.985,3.985,0,0,1,.1-1.069,1.509,1.509,0,0,1,1.61-1.164,1.536,1.536,0,0,1,1.419,1.388,8.647,8.647,0,0,1,.016.909v25.744C160.162,238.441,160.162,238.776,160.162,239.207Z" transform="translate(-84.69 -49.113)"/>
    <path id="路径_54" data-name="路径 54" d="M107,461.751H96.673c-1.594,0-2.057-.478-2.073-2.105V438.974c0-1.547.51-2.073,2.025-2.073h20.743c1.5,0,2.041.558,2.057,2.073v20.672c0,1.6-.51,2.09-2.1,2.09C113.877,461.751,110.449,461.751,107,461.751Zm-9.232-3.174h18.463V440.106H97.773Z" transform="translate(-51.001 -239.772)"/>
    <path id="路径_55" data-name="路径 55" d="M333.573,461.835H323.241c-1.547,0-2.025-.494-2.041-2.058V439.026c0-1.515.526-2.026,2.073-2.026h20.664c1.563,0,2.089.542,2.089,2.105v20.672c0,1.547-.51,2.058-2.041,2.058Zm-9.2-21.661v18.471h18.464V440.174Z" transform="translate(-241.471 -239.856)"/>
    <path id="路径_56" data-name="路径 56" d="M333.589,236.019H323.177c-1.435,0-1.977-.526-1.977-1.946V213.162c0-1.436.542-1.962,1.961-1.962h20.9c1.355,0,1.945.558,1.945,1.914q.024,10.5,0,21.007c0,1.356-.574,1.914-1.929,1.914C340.588,236.035,337.1,236.019,333.589,236.019Zm-9.2-21.645v18.439h18.463V214.374Z" transform="translate(-241.471 -50.072)"/>
    <path id="路径_57" data-name="路径 57" d="M116.284,232.745c0-.877-.016-1.643,0-2.425a1.555,1.555,0,0,1,3.109-.1c.048,1.388.064,2.775,0,4.163-.048,1.037-.7,1.547-1.865,1.547H96.45c-1.276,0-1.85-.558-1.85-1.818V212.95c0-1.276.558-1.85,1.818-1.85h21.158a1.611,1.611,0,0,1,1.834,1.771c.032,1.643.016,3.286,0,4.913a1.61,1.61,0,0,1-1.563,1.786c-.941,0-1.563-.718-1.563-1.85V214.29H97.773v18.439C103.943,232.745,110.066,232.745,116.284,232.745Z" transform="translate(-51.001 -49.988)"/>
    <path id="路径_58" data-name="路径 58" d="M151.6,263.623c0,1,.016,1.994,0,3-.016,1.133-.558,1.739-1.658,1.755-2.1.032-4.225.032-6.33,0a1.531,1.531,0,0,1-1.642-1.691c-.032-2.09-.032-4.163,0-6.253a1.523,1.523,0,0,1,1.674-1.659c2.1-.032,4.225-.032,6.33,0a1.5,1.5,0,0,1,1.626,1.691C151.62,261.517,151.6,262.57,151.6,263.623Zm-3.173-1.707h-3.285v3.3h3.285Z" transform="translate(-90.801 -90.038)"/>
    <path id="路径_59" data-name="路径 59" d="M466.307,154.926H465c-2.137,0-4.273.016-6.41,0a1.558,1.558,0,0,1-1.69-1.547,1.6,1.6,0,0,1,1.674-1.579h8.992c1.292,0,1.881.606,1.881,1.9.016,3.031.016,6.045,0,9.076,0,1.18-.59,1.85-1.547,1.866-1,.016-1.594-.67-1.594-1.9v-6.907C466.307,155.548,466.307,155.277,466.307,154.926Z" transform="translate(-355.535 -0.147)"/>
    <path id="路径_60" data-name="路径 60" d="M37.078,154.779v1.069c0,2.3.016,4.61-.016,6.907a1.531,1.531,0,0,1-1.626,1.707c-.925-.032-1.483-.67-1.5-1.739q-.024-4.666,0-9.331a1.55,1.55,0,0,1,1.738-1.755c3.029-.016,6.059-.016,9.072,0a1.566,1.566,0,0,1,1.706,1.563,1.584,1.584,0,0,1-1.754,1.579c-2.216.016-4.448,0-6.665,0Z" transform="translate(0)"/>
    <path id="路径_61" data-name="路径 61" d="M37.078,582.192h.973c2.248,0,4.5-.016,6.744,0a1.559,1.559,0,0,1,1.674,1.579,1.539,1.539,0,0,1-1.626,1.547c-3.077.032-6.154.032-9.248,0a1.548,1.548,0,0,1-1.658-1.755q-.024-4.666,0-9.331a1.563,1.563,0,1,1,3.109-.032c.032,2.3.016,4.61.016,6.906C37.078,581.442,37.078,581.777,37.078,582.192Z" transform="translate(0 -353.737)"/>
    <path id="路径_62" data-name="路径 62" d="M466.391,582.3c0-2.744-.016-5.343,0-7.943a1.543,1.543,0,0,1,1.754-1.723,1.593,1.593,0,0,1,1.387,1.771c.016,1.5,0,3,0,4.5,0,1.579.016,3.158,0,4.737a1.617,1.617,0,0,1-1.786,1.818c-3,.016-5.995.016-8.977,0a1.607,1.607,0,0,1-1.77-1.579,1.586,1.586,0,0,1,1.77-1.563c2.216-.016,4.432,0,6.649,0C465.706,582.3,466.009,582.3,466.391,582.3Z" transform="translate(-355.619 -353.849)"/>
    <path id="路径_63" data-name="路径 63" d="M231.991,282.9a1.559,1.559,0,0,1,1.594,1.547,1.6,1.6,0,0,1-1.61,1.563,1.521,1.521,0,0,1-1.578-1.563,1.559,1.559,0,0,1,1.594-1.547Z" transform="translate(-165.145 -110.334)"/>
    <path id="路径_64" data-name="路径 64" d="M96.035,392.6a1.572,1.572,0,0,1,1.563,1.6,1.611,1.611,0,0,1-1.658,1.515,1.556,1.556,0,1,1,.1-3.11Z" transform="translate(-50.825 -202.538)"/>
    <path id="路径_65" data-name="路径 65" d="M151.6,490.223c0,1.021.016,2.058,0,3.078a1.511,1.511,0,0,1-1.642,1.675c-2.1.032-4.225.032-6.33,0a1.53,1.53,0,0,1-1.658-1.675c-.032-2.09-.032-4.163,0-6.253a1.523,1.523,0,0,1,1.658-1.675c2.1-.032,4.225-.032,6.33,0a1.511,1.511,0,0,1,1.642,1.675C151.62,488.117,151.6,489.17,151.6,490.223Zm-3.189-1.659h-3.253v3.286h3.253Z" transform="translate(-90.801 -280.494)"/>
    <path id="路径_66" data-name="路径 66" d="M378.388,490.207c0,1.021.016,2.058,0,3.079a1.519,1.519,0,0,1-1.626,1.691q-3.2.048-6.41,0a1.49,1.49,0,0,1-1.578-1.579q-.048-3.206,0-6.412a1.491,1.491,0,0,1,1.547-1.611c2.168-.032,4.337-.032,6.489,0a1.5,1.5,0,0,1,1.578,1.659C378.4,488.1,378.388,489.154,378.388,490.207ZM375.2,491.85v-3.3h-3.253v3.3Z" transform="translate(-281.44 -280.494)"/>
    <path id="路径_67" data-name="路径 67" d="M378.283,263.554c0,1.021.016,2.058,0,3.078a1.539,1.539,0,0,1-1.69,1.723c-2.089.032-4.161.032-6.25,0a1.551,1.551,0,0,1-1.706-1.723q-.024-3.086,0-6.173a1.551,1.551,0,0,1,1.706-1.723c2.089-.016,4.161-.016,6.25,0a1.539,1.539,0,0,1,1.69,1.723C378.3,261.5,378.283,262.517,378.283,263.554Zm-3.2,1.659V261.9h-3.221v3.318Z" transform="translate(-281.335 -90.017)"/>
  </g>
</svg>
