<svg xmlns="http://www.w3.org/2000/svg" width="28.259" height="37.386" viewBox="0 0 28.259 37.386">
  <g id="组_430" data-name="组 430" transform="translate(0 0)">
    <path id="路径_246" data-name="路径 246" d="M651.578,1146.849c3.872,0,7.745.009,11.617,0a2.426,2.426,0,0,1,2.482,2.476q.024,8.8-.018,17.6a2.128,2.128,0,0,1-.551,1.032c-1.575,2.135-3.171,4.255-4.743,6.393a.859.859,0,0,0-.131.623c.636,2.78,1.3,5.555,1.944,8.333a.609.609,0,0,1-.5.839,3.124,3.124,0,0,1-.6.083q-9.928.007-19.856,0a2.3,2.3,0,0,1-.65-.094.591.591,0,0,1-.439-.783c.583-2.483,1.173-4.964,1.745-7.449a.891.891,0,0,0-.072-.569c-1.388-2.621-2.793-5.234-4.184-7.855a1.487,1.487,0,0,1-.182-.663c-.01-5.851,0-11.7-.013-17.553a2.471,2.471,0,0,1,2.331-2.4c3.941.013,7.881,0,11.821,0Zm-.009,19.555c4.092,0,8.185-.01,12.277.012.515,0,.617-.163.616-.638q-.022-8.057-.01-16.114c0-1.189-.394-1.584-1.584-1.593-.136,0-.273,0-.409,0H644.247c-1.381,0-2.762-.009-4.144,0-1.016.006-1.442.449-1.442,1.466,0,5.405.007,10.811-.011,16.216,0,.5.1.667.641.664,4.092-.025,8.185-.014,12.277-.014Zm-7.646,14.735,2.035-10.827c-.4,0-.72.012-1.04,0s-.471.066-.543.429c-.207,1.051-.48,2.088-.728,3.131q-1.01,4.259-2.019,8.518c-.144.611-.134.614.495.614h18.717l-2.941-12.549h-1.521l2.009,10.687Zm15.308-11.134.635,2.964,3.936-5.29h-24.7l3.174,5.934.122-.037.843-3.571c-.228,0-.415-.01-.6,0a.685.685,0,0,1-.8-.616c-.062-.371.285-.616.814-.616q2.43,0,4.86,0H659.8c.5,0,.764.213.762.609s-.266.609-.762.62c-.169,0-.338,0-.571,0Zm-8.631,8.709a2.757,2.757,0,0,0,.4.495c.045.034.313-.1.313-.149,0-.387.3-.384.54-.458a1.814,1.814,0,0,0,1.34-1.755,2.089,2.089,0,0,0-1.343-2.112c-.19-.083-.45-.261-.473-.423a11.509,11.509,0,0,1-.022-1.5c.316.108.57.181.813.282.335.14.636.168.811-.22a.572.572,0,0,0-.36-.843c-.386-.151-.795-.245-1.2-.367a1.224,1.224,0,0,0-.29-.345c-.065-.038-.325.082-.328.136-.015.458-.385.408-.661.51a1.716,1.716,0,0,0-1.232,1.4,1.631,1.631,0,0,0,.785,1.781c.247.143.518.245.762.391.113.068.265.194.27.3.027.567.013,1.136.013,1.813-.416-.23-.749-.387-1.053-.588-.279-.184-.537-.332-.8-.019a.65.65,0,0,0,.058.946,2.323,2.323,0,0,0,1.662.725Z" transform="translate(-637.426 -1146.845)" fill="#ff4e00"/>
    <path id="路径_247" data-name="路径 247" d="M686.555,1198.791h-8.034a2.016,2.016,0,0,1-1.971-1.753,13.192,13.192,0,0,1-.1-1.471c-.01-2.3-.017-4.606,0-6.908a2.206,2.206,0,0,1,2.125-2.547c5.339-.02,10.678-.015,16.017-.013a2.009,2.009,0,0,1,2.015,2.022q0,4.324,0,8.648a2,2,0,0,1-2.022,2.023Q690.573,1198.8,686.555,1198.791Zm.022-1.231H694.1c1.008,0,1.282-.279,1.282-1.3v-7.827a.956.956,0,0,0-1.077-1.1q-7.725-.009-15.451,0c-.739,0-1.074.363-1.074,1.1,0,2.644.024,5.287-.016,7.93a1.085,1.085,0,0,0,1.243,1.21c2.523-.022,5.048-.008,7.572-.008Z" transform="translate(-672.448 -1182.078)" fill="#8991a0"/>
    <path id="路径_248" data-name="路径 248" d="M761.407,1403.367c-.445-.083-.774-.314-.753-.778.017-.375.313-.564.753-.555Z" transform="translate(-748.04 -1375.914)" fill="#ff4e00"/>
    <path id="路径_249" data-name="路径 249" d="M773.54,1432.635v-1.567a.855.855,0,0,1,.671.862A.676.676,0,0,1,773.54,1432.635Z" transform="translate(-759.608 -1401.976)" fill="#ff4e00"/>
    <path id="路径_250" data-name="路径 250" d="M749.605,1211.541c0,.512.007,1.024,0,1.535a.492.492,0,0,0,.556.566,8.209,8.209,0,0,1,.97.014.676.676,0,0,1,.482.27.612.612,0,0,1-.128.536c-.827.861-1.681,1.694-2.522,2.541a.48.48,0,0,1-.778-.015c-.807-.809-1.626-1.605-2.412-2.433a.708.708,0,0,1-.126-.594.652.652,0,0,1,.465-.3,4.053,4.053,0,0,1,.918-.011c.458.031.646-.153.636-.621-.02-.937-.008-1.876-.006-2.813,0-.636.161-.81.8-.84a5.093,5.093,0,0,1,.655.051c.358.031.495.242.491.583C749.6,1210.519,749.6,1211.03,749.605,1211.541Z" transform="translate(-734.551 -1202.973)" fill="#8991a0"/>
  </g>
</svg>
