<svg xmlns="http://www.w3.org/2000/svg" width="80" height="70.922" viewBox="0 0 80 70.922">
  <g id="credit-card" transform="translate(-105.6 -250.676)">
    <path id="路径_58" data-name="路径 58" d="M222.349,292.2a5.889,5.889,0,0,0-.229.646,5.974,5.974,0,0,1-4.625,4.4c-2.1.458-4.229.792-6.479,1.188v-1c0-5.292.021-10.562,0-15.854a10.846,10.846,0,0,0-8.375-10.854,11.858,11.858,0,0,0-2.854-.292q-23.125-.031-46.25,0c-.708,0-1.021-.146-1.083-.9a29.646,29.646,0,0,1-.417-4.25,6,6,0,0,1,5.1-5.437q17.094-3,34.188-5.979c5.958-1.042,11.937-2.1,17.917-3.1a5.937,5.937,0,0,1,6.854,4.6c.667,3.125,1.167,6.292,1.708,9.437q2.219,12.469,4.4,24.979a4.528,4.528,0,0,0,.146.5C222.349,290.952,222.349,291.577,222.349,292.2Z" transform="translate(-36.749 0)"/>
    <path id="路径_59" data-name="路径 59" d="M105.6,492.7h64v13.771c0,4.146-2.6,6.729-6.729,6.729H112.413c-4.229,0-6.792-2.583-6.792-6.833V493.638C105.6,493.346,105.6,493.054,105.6,492.7Zm13.208,10.167h-5a2.354,2.354,0,1,0-.021,4.688h10.146a2.354,2.354,0,1,0,.021-4.687Z" transform="translate(0 -191.602)"/>
    <path id="路径_60" data-name="路径 60" d="M169.717,419.3v10.5H105.8V419.3Z" transform="translate(-0.158 -133.494)"/>
    <path id="路径_61" data-name="路径 61" d="M169.892,373.944H106.038a5.728,5.728,0,0,1,3.271-5.187,7.514,7.514,0,0,1,3-.687q25.625-.063,51.25-.021a6.121,6.121,0,0,1,6.188,4.833A6.892,6.892,0,0,1,169.892,373.944Z" transform="translate(-0.333 -92.909)"/>
  </g>
</svg>
