<svg xmlns="http://www.w3.org/2000/svg" width="80" height="80.04" viewBox="0 0 80 80.04">
  <path id="globalization" d="M115.4,195.34v-5c.042-.229.1-.458.125-.688.313-2.021.5-4.084.959-6.085a40.01,40.01,0,1,1,45.8,48.656c-1.459.25-2.938.4-4.4.6h-5a4.726,4.726,0,0,0-.521-.125c-1.834-.271-3.667-.438-5.48-.813-15.5-3.1-28.36-16.441-30.881-32.027C115.775,198.382,115.608,196.861,115.4,195.34Zm20.442-19.108c-3.042-1.209-6.168-2.438-9.314-3.688-4.188,5.584-6.314,13.357-6.272,17.92h13.753Q134.946,183.275,135.842,176.232Zm-1.813,19H120.172a34.723,34.723,0,0,0,6.335,17.941c3.23-1.271,6.355-2.521,9.335-3.709C135.237,204.758,134.633,200.028,134.029,195.236Zm50.281-22.713c-3.251,1.292-6.376,2.542-9.335,3.709q.906,7.064,1.813,14.211h13.857A35.039,35.039,0,0,0,184.31,172.523Zm-.083,40.737a35.049,35.049,0,0,0,6.4-18.024H176.766c-.625,4.813-1.229,9.564-1.834,14.336,1.459.521,3.042,1.021,4.584,1.625C181.1,211.8,182.622,212.552,184.226,213.26Zm-43.571-35.82c-.9,2.917-1.938,11.461-1.563,13h13.919V178.837C148.865,178.378,144.8,177.9,140.655,177.44Zm31.173,13.023a65.316,65.316,0,0,0-1.646-13.023c-4.188.479-8.272.938-12.4,1.4v11.627Zm-18.8,4.772H138.967a63.837,63.837,0,0,0,1.667,13.023c4.188-.479,8.293-.938,12.419-1.4C153.032,203.05,153.032,199.174,153.032,195.236Zm4.751,11.627c4.147.479,8.231.938,12.4,1.4a64.386,64.386,0,0,0,1.646-13.023H157.783Zm.021-48.906v16a65.67,65.67,0,0,0,11.065-1.25c-.354-.938-.646-1.771-.979-2.584a27.516,27.516,0,0,0-5.835-9.4A11,11,0,0,0,157.8,157.957Zm-4.772-.125c-6.4,3.084-8.814,8.9-11.148,14.9a63.822,63.822,0,0,0,11.148,1.229Zm-11.211,54.99c.646,1.6,1.125,2.938,1.709,4.23a22.975,22.975,0,0,0,6.314,8.877,34.121,34.121,0,0,0,3.146,2V211.593C149.3,211.989,145.656,212.385,141.822,212.822Zm27.089.146a65.878,65.878,0,0,0-11.106-1.229v16.107C164.139,224.783,166.577,218.99,168.911,212.968ZM173.6,171.71c2.48-.959,4.98-1.917,7.647-2.938a35.642,35.642,0,0,0-13.607-9.085c1.125,1.938,2.313,3.792,3.292,5.751C171.89,167.418,172.661,169.5,173.6,171.71Zm7.647,45.2c-2.688-1.021-5.209-1.98-7.647-2.917-.938,2.23-1.709,4.293-2.688,6.272-.979,1.959-2.167,3.813-3.292,5.751A35.376,35.376,0,0,0,181.246,216.907Zm-43.925-45.155a43.282,43.282,0,0,1,5.918-12,34.476,34.476,0,0,0-13.69,9.023C132.237,169.793,134.737,170.772,137.321,171.752Zm0,42.175c-2.6,1-5.105,1.959-7.752,2.98a34.477,34.477,0,0,0,13.69,9.023A42.487,42.487,0,0,1,137.321,213.927Z" transform="translate(-115.4 -152.787)"/>
</svg>
