<svg id="组_428" data-name="组 428" xmlns="http://www.w3.org/2000/svg" width="27.936" height="38.969" viewBox="0 0 27.936 38.969">
  <path id="路径_235" data-name="路径 235" d="M822.923,828.34H811.587a2.307,2.307,0,0,1-2.243-1.155,3.03,3.03,0,0,1-.373-1.349q-.037-8.663,0-17.326a1.47,1.47,0,0,1,.275-.758c1.325-1.96,2.649-3.921,4.019-5.849a1.411,1.411,0,0,0,.139-1.158,9.762,9.762,0,0,1,1.834-7.3,9.476,9.476,0,0,1,5.986-3.865,9.995,9.995,0,0,1,11.869,8.46,22.212,22.212,0,0,1,.036,2.463,1.8,1.8,0,0,0,.166.747c1.144,2.236,2.309,4.461,3.456,6.695a1.385,1.385,0,0,1,.135.611q.009,8.539,0,17.079a2.443,2.443,0,0,1-2.725,2.709Zm0-19.384q-6.09,0-12.181-.007c-.406,0-.584.08-.582.542q.023,8.021.007,16.043c0,1.07.477,1.57,1.539,1.568,7.477-.02,14.954-.01,22.43-.012,1.155,0,1.559-.419,1.559-1.586,0-5.315-.006-10.629.011-15.944,0-.473-.12-.616-.6-.614-4.06.018-8.12.01-12.181.01Zm-3.9-3.883.075-.112a7.057,7.057,0,0,1-2.789-4.921,6.807,6.807,0,0,1,1.761-5.406,7,7,0,0,1,9.2-1.016,6.672,6.672,0,0,1,2.944,5.628,7.059,7.059,0,0,1-2.91,5.826c.879,0,1.571.018,2.261-.013a.749.749,0,0,0,.477-.28,8.443,8.443,0,0,0,1.682-7.455,8.709,8.709,0,1,0-15.243,7.464.687.687,0,0,0,.426.271c.7.029,1.409.013,2.114.013Zm16.244,2.652-2.571-4.948-1.446,2.607a5.09,5.09,0,0,1,.716.006c.339.05.584.223.573.616a.556.556,0,0,1-.593.584c-.148.01-.3.007-.445.007H815.065c-.148,0-.3,0-.445-.005-.383-.018-.623-.183-.619-.6s.266-.574.633-.606c.187-.016.376,0,.607,0l-1.329-2.33-3.182,4.675Zm-11.846-11.76c.325.109.608.185.875.3.376.159.68.123.85-.281a.624.624,0,0,0-.328-.9c-.219-.1-.47-.128-.7-.211-.291-.107-.668.011-.837-.431-.1-.266-.6-.162-.634.148-.038.346-.247.364-.483.439a1.988,1.988,0,0,0-1.4,2.7,2.4,2.4,0,0,0,1.607,1.34c.177.063.417.262.431.416.051.57.02,1.148.02,1.882-.433-.224-.787-.394-1.127-.589-.29-.167-.561-.387-.852-.009a.712.712,0,0,0,.02,1.02,2.422,2.422,0,0,0,1.568.722c.223.026.463-.023.515.323a.433.433,0,0,0,.349.25c.142-.017.274-.174.4-.283s.224-.312.366-.348c1.845-.47,1.876-3.16.735-3.96-.317-.223-.7-.353-1.033-.551-.134-.079-.316-.22-.324-.344C823.4,797.071,823.417,796.546,823.417,795.967Z" transform="translate(-808.952 -789.372)" fill="#ff4e00"/>
  <path id="路径_236" data-name="路径 236" d="M858.848,1027.811c-2.608,0-5.216,0-7.824,0a2.113,2.113,0,0,1-2.124-2.181c-.03-2.74-.023-5.48,0-8.221a2.2,2.2,0,0,1,2.422-2.169c2.427-.011,4.853,0,7.28,0h7.775a2.225,2.225,0,0,1,2.521,2.516q0,3.888,0,7.775a2.139,2.139,0,0,1-1.541,2.2,3.42,3.42,0,0,1-.926.088q-3.788.01-7.577,0Zm.1-11.309H851.42c-.934,0-1.238.3-1.238,1.236q0,3.812,0,7.624c0,.858.37,1.238,1.219,1.238q7.5,0,15,0c.859,0,1.208-.35,1.208-1.19q0-3.862,0-7.723c0-.865-.322-1.185-1.189-1.185h-7.477Z" transform="translate(-844.925 -992.865)" fill="#8991a0"/>
  <path id="路径_237" data-name="路径 237" d="M956.438,893.756V892.05a.876.876,0,0,1,.742.8C957.232,893.314,956.987,893.61,956.438,893.756Z" transform="translate(-941.83 -881.88)" fill="#ff4e00"/>
  <path id="路径_238" data-name="路径 238" d="M941.747,859.127v1.436c-.568-.112-.793-.349-.771-.807C941,859.351,941.166,859.2,941.747,859.127Z" transform="translate(-927.898 -852.218)" fill="#ff4e00"/>
  <path id="路径_239" data-name="路径 239" d="M920.234,1041.188c0-.5-.007-.99,0-1.485.009-.517.211-.713.717-.722.149,0,.3,0,.446,0,.657,0,.818.16.819.807,0,.94.007,1.881,0,2.821,0,.451.167.675.647.636a4.193,4.193,0,0,1,.938.008.684.684,0,0,1,.466.28.548.548,0,0,1-.121.488q-1.277,1.311-2.595,2.582a.523.523,0,0,1-.788-.025c-.822-.811-1.648-1.618-2.445-2.453a.66.66,0,0,1-.122-.58.706.706,0,0,1,.5-.292,5.779,5.779,0,0,1,.988-.011c.4.012.566-.173.555-.57C920.223,1042.177,920.234,1041.682,920.234,1041.188Z" transform="translate(-907.355 -1014.257)" fill="#8991a0"/>
</svg>
