<svg xmlns="http://www.w3.org/2000/svg" width="14" height="14" viewBox="0 0 14 14">
    <g fill="none" fill-rule="evenodd">
        <g fill="#FFF" fill-rule="nonzero">
            <g>
                <g>
                    <path d="M4.769 7.187c.234.05.232.22.232.22v2.117h3.92l.032-.004c.322-.047 3.06-.476 3.06-1.55v.014c-.008.242-.166 3.574-3.19 3.574H5.002v2.261s.005.12-.231.172c-.199.044-.39-.09-.39-.09l-4.006-2.83S0 10.883 0 10.506c0-.367.266-.516.266-.516l4.03-2.754s.255-.093.472-.047v-.001zM9.615.093l4.01 2.831s.375.192.375.568c0 .369-.266.519-.266.519L9.701 6.767s-.169.1-.397.04c-.28-.072-.293-.215-.293-.215V4.474H5.07s-3.095.413-3.095 1.555v-.014c.008-.242.167-3.577 3.194-3.577l3.84.001V.174s.043-.138.295-.17c.17-.023.273.063.31.089z" transform="translate(-1033.000000, -198.000000) translate(434.000000, 187.000000) translate(599.000000, 11.000000) translate(0.000000, 0.000000) translate(7.000166, 7.000069) rotate(90.000000) translate(-7.000166, -7.000069)"/>
                </g>
            </g>
        </g>
    </g>
</svg>