<svg xmlns="http://www.w3.org/2000/svg" xmlns:xlink="http://www.w3.org/1999/xlink" version="1.1" id="圖層_1" x="0px" y="0px" viewBox="0 0 20 16" style="enable-background:new 0 0 20 16;" xml:space="preserve">
<style type="text/css">
	.st0{fill:#FFFFFF;}
</style>
<path class="st0" d="M19,5.4V3c0-1.7-1.3-3-3-3H3C1.3,0,0,1.3,0,3v3.1c0,0.1,0.1,0.2,0.2,0.2h1.1c0.1,0,0.2-0.1,0.2-0.2V3  c0-0.8,0.7-1.5,1.5-1.5h13c0.8,0,1.5,0.7,1.5,1.5v2.2h-3.2c-1,0-1.7,0.8-1.8,1.8v2c0,1,0.8,1.7,1.8,1.8h3.2V13  c0,0.8-0.7,1.5-1.5,1.5H3c-0.8,0-1.5-0.7-1.5-1.5v-3c0-0.1-0.1-0.2-0.2-0.2H0.2C0.1,9.8,0,9.9,0,10v3c0,1.7,1.3,3,3,3h13  c1.7,0,3-1.3,3-3v-2.4c0.6-0.3,1-0.9,1-1.6V7C20,6.3,19.6,5.7,19,5.4z M15.2,9c-0.6,0-1-0.4-1-1s0.4-1,1-1s1,0.4,1,1S15.8,9,15.2,9z  "/>
<path class="st0" d="M0.2,8.8h5.6L5.7,8.9c0,0-0.1,0.1-0.1,0.1v1.6c0,0.1,0,0.1,0.1,0.2h0.1c0.1,0,0.1,0,0.2-0.1l2.6-2.6  c0.1-0.1,0.1-0.2,0-0.3L5.9,5.3c0,0-0.1-0.1-0.2-0.1H5.7c-0.1,0-0.1,0.1-0.1,0.2V7c0,0.1,0,0.1,0.1,0.1l0.2,0.2H0.2  C0.1,7.3,0,7.4,0,7.5v1.1C0,8.7,0.1,8.8,0.2,8.8z"/>
</svg>