<svg xmlns="http://www.w3.org/2000/svg" width="62" height="62" viewBox="0 0 62 62">
    <g fill="none" fill-rule="evenodd">
        <g>
            <path stroke="#979797" d="M11 36L11 32 52 32 52 36M31 27v9.054"/>
            <g>
                <path fill="#EBD2FF" d="M18.915 24.705v-5.419h1.112c0-3.045 4.464-5.512 9.973-5.512 5.51 0 9.976 2.467 9.976 5.512h1.11v5.419H18.914z" transform="translate(1 35)"/>
                <path fill="#A5CDFF" d="M20.054 19.293v5.418H1.884c-.935-.104-1.678-.843-1.779-1.778v-3.64c0-3.042 4.464-5.512 9.973-5.512s9.976 2.47 9.976 5.512z" transform="translate(1 35)"/>
                <path fill="#CCF49F" d="M59.925 19.286v3.64c-.104.935-.843 1.675-1.778 1.779h-18.17v-5.419c0-3.045 4.466-5.512 9.975-5.512 5.506 0 9.973 2.467 9.973 5.512z" transform="translate(1 35)"/>
                <g fill-rule="nonzero">
                    <path fill="#FFCBBE" d="M31.941 9.79c0 3.285-2.689 5.97-5.973 5.97-3.283 0-5.97-2.685-5.97-5.97v-6.4c0-1.838 1.503-3.34 3.342-3.34h5.257c1.839 0 3.344 1.502 3.344 3.34v6.4zM51.894 9.79c0 3.285-2.69 5.97-5.973 5.97-3.284 0-5.97-2.685-5.97-5.97v-6.4c0-1.838 1.503-3.34 3.341-3.34h5.257c1.839 0 3.345 1.502 3.345 3.34v6.4zM11.989 9.79c0 3.285-2.69 5.97-5.973 5.97-3.284 0-5.97-2.685-5.97-5.97v-6.4C.046 1.553 1.55.05 3.388.05h7.71l.891.887v8.854z" transform="translate(1 35) translate(4.032 .877)"/>
                    <path fill="#D09080" d="M39.951 3.39v3.927l4.08-2c.552-.27 1.086-.293 1.644-.104l6.218 2.104V3.39c0-1.839-1.505-3.341-3.344-3.341h-5.257c-1.838 0-3.34 1.502-3.34 3.34z" transform="translate(1 35) translate(4.032 .877)"/>
                    <path fill="#FFE5A0" d="M19.999 3.39v2.327c1.684.625 3.089.097 3.896-.36.631-.36.732-.43 1.357.118 2.864 2.507 6.69 1.116 6.69 1.116v-3.2c0-1.839-1.506-3.341-3.345-3.341H23.34c-1.839 0-3.341 1.502-3.341 3.34z" transform="translate(1 35) translate(4.032 .877)"/>
                    <path fill="#477B9E" d="M.047 3.39v1.93h11.942V.937c0-.534-.279-.887-.89-.887H3.387C1.549.05.047 1.552.047 3.39z" transform="translate(1 35) translate(4.032 .877)"/>
                    <path fill="#B3E59F" d="M52.929 18.409v3.64c-.104.935-.844 1.674-1.778 1.778h2.964c.935-.104 1.674-.843 1.778-1.778v-3.64c0-2.118-2.157-3.956-5.327-4.877-.245.306-.524.585-.824.837 1.96 1.008 3.187 2.443 3.187 4.04z" transform="translate(1 35) translate(4.032 .877)"/>
                    <path fill="#D7BEF0" d="M32.98 18.409v3.64c-.104.935-.847 1.674-1.778 1.778h4.743c.124-.13 0-4.894 0-5.418 0-2.118-2.162-3.956-5.328-4.877-.249.306-.524.585-.827.837 1.963 1.008 3.19 2.443 3.19 4.04z" transform="translate(1 35) translate(4.032 .877)"/>
                    <path fill="#8ABFFF" d="M13.058 18.416v3.64c-.104.934-.847 1.674-1.778 1.778h4.742c.125-.131 0-4.89 0-5.418 0-2.115-2.16-3.953-5.327-4.878-.249.306-.525.585-.827.837 1.963 1.009 3.19 2.447 3.19 4.04z" transform="translate(1 35) translate(4.032 .877)"/>
                    <path fill="#F7BEAF" d="M47.974 13.014c-.803 1.247-2.063 2.178-3.536 2.558.474.124.972.188 1.483.188 1.448 0 2.783-.524 3.821-1.391.3-.253.579-.532.824-.837.83-1.026 1.328-2.33 1.328-3.742V7.317l-2.965-1.005V9.79c0 1.184-.35 2.293-.955 3.224z" transform="translate(1 35) translate(4.032 .877)"/>
                    <path fill="#BE694F" d="M48.93 3.39v2.922l2.964 1.005V3.39c0-1.839-1.506-3.341-3.345-3.341h-2.964c1.838 0 3.344 1.502 3.344 3.34z" transform="translate(1 35) translate(4.032 .877)"/>
                    <path fill="#F7BEAF" d="M28.977 9.79c0 1.184-.35 2.293-.955 3.224-.803 1.247-2.064 2.178-3.536 2.558.474.124.971.188 1.482.188 1.873 0 3.55-.87 4.646-2.228.83-1.029 1.327-2.33 1.327-3.742v-3.2s-1.307.478-2.964.37v2.83z" transform="translate(1 35) translate(4.032 .877)"/>
                    <path fill="#F2CE7E" d="M28.977 3.39v3.57c1.657.108 2.964-.37 2.964-.37v-3.2c0-1.838-1.505-3.34-3.344-3.34h-2.965c1.839 0 3.345 1.502 3.345 3.34z" transform="translate(1 35) translate(4.032 .877)"/>
                    <path fill="#F7BEAF" d="M8.07 13.017c-.807 1.247-2.064 2.175-3.536 2.555.474.124.971.188 1.482.188 1.872 0 3.55-.874 4.645-2.232.83-1.025 1.328-2.326 1.328-3.737V5.32H9.024v4.47c0 1.186-.353 2.295-.954 3.226z" transform="translate(1 35) translate(4.032 .877)"/>
                    <path fill="#365E7D" d="M9.024.937V5.32h2.965V.937c0-.535-.279-.887-.89-.887H8.133c.611 0 .89.353.89.887z" transform="translate(1 35) translate(4.032 .877)"/>
                </g>
            </g>
            <g>
                <g>
                    <path fill="#BBB" d="M9.974 0c4.59 0 8.457 1.716 9.619 4.048l.073.155c.185.42.283.858.283 1.31v3.64c-.104.934-.844 1.674-1.778 1.778H1.778C.844 10.827.101 10.087 0 9.153v-3.64c0-1.831 1.617-3.455 4.105-4.458l.202-.08.2-.073C4.648.85 4.793.8 4.94.752l.246-.077C5.64.538 6.114.42 6.606.322c.102-.02.205-.04.309-.058.187-.033.377-.064.569-.09.26-.038.526-.069.794-.094.14-.014.281-.026.423-.036C9.118.015 9.543 0 9.974 0z" transform="translate(21 4) translate(0 13)"/>
                    <path fill="#A2A2A2" d="M19.593 4.048l.073.155c.185.42.283.858.283 1.31v3.64c-.096.863-.735 1.56-1.569 1.743h-3.168c.93-.105 1.674-.844 1.778-1.778v-3.64c0-1.594-1.227-3.033-3.19-4.041.302-.252.578-.531.827-.837l-.024.029c2.418.702 4.25 1.936 4.99 3.419z" transform="translate(21 4) translate(0 13)"/>
                </g>
                <path fill="#FFCBBE" fill-rule="nonzero" d="M15.942 9.741c0 3.284-2.689 5.97-5.972 5.97C6.686 15.71 4 13.025 4 9.74v-6.4C4 1.502 5.502 0 7.341 0h7.71l.891.887v8.854z" transform="translate(21 4)"/>
                <path fill="#636363" fill-rule="nonzero" d="M4 3.341v1.93h11.942V.888c0-.535-.279-.888-.89-.888H7.34C5.502 0 4 1.502 4 3.341z" transform="translate(21 4)"/>
                <path fill="#F7BEAF" fill-rule="nonzero" d="M12.023 12.968c-.807 1.247-2.064 2.175-3.536 2.554.474.125.972.189 1.483.189 1.872 0 3.55-.874 4.645-2.232.83-1.025 1.327-2.326 1.327-3.738v-4.47h-2.964v4.47c0 1.187-.353 2.296-.955 3.227z" transform="translate(21 4)"/>
                <path fill="#3A3A3A" fill-rule="nonzero" d="M12.978.887v4.384h2.964V.887c0-.534-.279-.887-.89-.887h-2.965c.612 0 .89.353.89.887z" transform="translate(21 4)"/>
            </g>
        </g>
    </g>
</svg>
